:SAMPLES-PER-SECOND 30
:FULLY-SPECIFIED
:DEGREES
542
root  -18.7949 39.2001 9.54267 -178.181 53.9786 179.329
RightUpLeg  -7.82909 -3.86038 -15.8585
RightLeg  18.7624 -14.8894 -5.7768
RightFoot  0.423107 -2.02511 19.4608
RightToes  -5.8209e-011 0 -3.6325e-017
Spine  7.39394 0.333439 -4.05156
Spine1  16.9198 2.51514 -7.377
HEad  -13.3994 35.3883 -6.65645
LeftShoulder1  0.750447 0.0997341 -15.2141
LeftArm  10.2659 1.21155 -61.1339
LeftForeArm  46.9685 -77.4298 -56.6796
LeftHand  -1.81544 -2.9188 25.2642
RightShoulder  0.55836 -0.775183 13.652
RightArm  -3.11895 -4.62383 62.6068
RightForeArm  7.56292 74.7405 50.4205
RightHand  -0.804958 1.12692 -14.4532
LeftUpLeg  -9.1192 -0.901503 9.59412
LeftLeg  22.1548 2.15009 1.30176
LeftFoot  -9.03624 0.374095 -15.8889
LeftToes  -3.91115e-011 -2.2622e-010 9.51032e-012
543
root  -18.558 38.8505 9.79055 -179.151 56.3415 179.262
RightUpLeg  -7.86617 -2.25096 -15.9097
RightLeg  19.3649 -14.2845 -5.69679
RightFoot  -0.813414 -2.0275 21.8458
RightToes  -5.8209e-011 0 -3.6325e-017
Spine  7.81518 -0.00623131 -4.74326
Spine1  16.7398 1.51341 -5.69093
HEad  -14.348 38.6567 -9.72606
LeftShoulder1  0.518622 1.20675 -15.7522
LeftArm  9.65474 2.81941 -60.1041
LeftForeArm  57.1032 -78.5329 -66.3653
LeftHand  -1.81476 -3.23417 24.37
RightShoulder  0.622345 -0.617941 14.8586
RightArm  -6.10226 -9.72533 63.3391
RightForeArm  2.35994 72.9653 43.0654
RightHand  -0.808861 1.15692 -14.4376
LeftUpLeg  -9.48329 0.699199 10.4133
LeftLeg  26.3797 1.70216 1.25855
LeftFoot  -10.2713 0.224216 -17.5869
LeftToes  -3.91115e-011 -2.2622e-010 9.51032e-012
544
root  -18.4255 38.2639 10.0472 179.764 59.4652 179.958
RightUpLeg  -8.64827 -1.54033 -15.3959
RightLeg  22.8382 -10.5364 -5.02044
RightFoot  -5.98783 -1.18253 23.9
RightToes  -5.8209e-011 0 -3.6325e-017
Spine  9.68447 -0.213773 -3.879
Spine1  16.0537 1.10269 -5.01391
HEad  -16.2686 41.8071 -12.8861
LeftShoulder1  0.315831 2.10779 -15.7989
LeftArm  8.45445 4.33118 -59.4496
LeftForeArm  66.8378 -79.1701 -76.7185
LeftHand  -1.83392 -3.19819 24.7193
RightShoulder  0.668842 -0.434734 15.0977
RightArm  -9.47723 -13.4781 63.8221
RightForeArm  -2.52129 71.579 39.1069
RightHand  -1.02753 1.75777 -16.7353
LeftUpLeg  -10.4133 2.40763 11.9107
LeftLeg  33.5663 0.867795 0.975205
LeftFoot  -11.7703 -0.006183 -19.904
LeftToes  -3.91115e-011 -2.2622e-010 9.51032e-012
545
root  -18.4077 37.5594 10.2766 178.952 62.8324 -178.657
RightUpLeg  -10.4248 -1.28508 -14.6292
RightLeg  28.3062 -6.60705 -4.07158
RightFoot  -11.1003 -0.130446 23.1488
RightToes  -5.8209e-011 0 -3.6325e-017
Spine  11.9077 -0.360522 -2.00686
Spine1  15.9615 1.18627 -4.94868
HEad  -19.405 44.4079 -16.2907
LeftShoulder1  0.262365 2.34691 -15.8668
LeftArm  6.69628 5.25847 -59.0829
LeftForeArm  72.0416 -79.3248 -83.2748
LeftHand  -1.93499 -3.09313 26.3247
RightShoulder  0.660299 -0.51551 15.4427
RightArm  -11.6711 -15.3309 62.971
RightForeArm  -6.42689 70.3321 36.1806
RightHand  -1.41477 2.83296 -20.0158
LeftUpLeg  -11.9308 3.51209 13.9166
LeftLeg  42.3459 -0.00489116 0.392378
LeftFoot  -11.6774 0.0071781 -22.8759
LeftToes  -3.91115e-011 -2.2622e-010 9.51032e-012
546
root  -18.4344 36.9319 10.4199 178.643 65.6447 -177.006
RightUpLeg  -12.3166 -1.16714 -14.0099
RightLeg  33.5681 -3.93362 -3.06892
RightFoot  -13.5296 0.326854 21.5543
RightToes  -5.8209e-011 0 -3.6325e-017
Spine  13.1828 -0.562362 -0.478588
Spine1  17.2309 1.22854 -4.72715
HEad  -23.1405 46.3696 -20.0177
LeftShoulder1  0.370303 1.93301 -16.7893
LeftArm  4.68285 5.54068 -58.8432
LeftForeArm  70.4929 -79.2554 -83.0593
LeftHand  -2.13036 -2.98165 29.2227
RightShoulder  0.618987 -0.770474 16.0576
RightArm  -11.9687 -15.3608 60.6325
RightForeArm  -8.91687 68.7808 32.9155
RightHand  -1.84786 3.91565 -23.0306
LeftUpLeg  -13.719 3.47475 15.8901
LeftLeg  50.2898 -0.728532 -0.487036
LeftFoot  -8.91227 0.616344 -25.9001
LeftToes  -3.91115e-011 -2.2622e-010 9.51032e-012
547
root  -18.4243 36.6108 10.3913 178.809 67.1785 -175.553
RightUpLeg  -12.7605 -1.14981 -13.717
RightLeg  35.9128 -2.32429 -2.08473
RightFoot  -14.1464 0.436567 21.5212
RightToes  -5.8209e-011 0 -3.6325e-017
Spine  13.3389 -0.98786 0.286801
Spine1  19.0886 0.764469 -4.0496
HEad  -25.7448 48.0029 -22.9596
LeftShoulder1  0.52776 1.38343 -18.285
LeftArm  3.25712 5.88385 -59.1834
LeftForeArm  65.0816 -79.0775 -78.8835
LeftHand  -2.32703 -2.70851 32.7976
RightShoulder  0.609175 -0.856747 16.4678
RightArm  -10.7954 -15.1077 57.7969
RightForeArm  -10.7006 66.9935 29.7238
RightHand  -2.25876 4.79375 -25.6222
LeftUpLeg  -15.2869 2.2302 17.1713
LeftLeg  55.388 -1.42589 -1.71122
LeftFoot  -4.47962 1.67316 -27.1518
LeftToes  -3.91115e-011 -2.2622e-010 9.51032e-012
548
root  -18.3592 36.6503 10.166 178.778 67.6434 -175.152
RightUpLeg  -11.6903 -0.613029 -13.8689
RightLeg  34.9329 -1.99838 -1.7573
RightFoot  -14.3004 0.488233 22.445
RightToes  -5.8209e-011 0 -3.6325e-017
Spine  12.9405 -1.53513 0.496962
Spine1  20.2418 0.0333972 -3.38521
HEad  -25.9909 49.5668 -23.8801
LeftShoulder1  0.580309 1.25425 -19.2653
LeftArm  3.25726 7.04983 -60.4806
LeftForeArm  62.033 -78.9509 -77.0931
LeftHand  -2.43634 -2.43344 35.3734
RightShoulder  0.627545 -0.787925 16.568
RightArm  -8.96648 -16.3753 55.4004
RightForeArm  -11.5639 65.8478 27.96
RightHand  -2.59687 5.39535 -27.7248
LeftUpLeg  -16.2077 0.71652 17.2111
LeftLeg  57.3595 -2.04277 -2.89347
LeftFoot  -1.45973 2.24463 -25.4865
LeftToes  -3.91115e-011 -2.2622e-010 9.51032e-012
549
root  -18.2737 36.952 9.79728 178.303 67.9879 -176.101
RightUpLeg  -10.3312 1.0591 -14.3979
RightLeg  31.844 -3.33846 -2.46956
RightFoot  -13.383 0.319575 22.7499
RightToes  -5.8209e-011 0 -3.6325e-017
Spine  12.2502 -1.80978 0.452097
Spine1  20.3613 -0.309398 -3.20992
HEad  -24.7572 50.7254 -23.2499
LeftShoulder1  0.493401 1.59432 -19.2803
LeftArm  4.72314 9.06589 -62.1458
LeftForeArm  65.8389 -79.0769 -81.5122
LeftHand  -2.43345 -2.44293 35.2867
RightShoulder  0.620044 -0.826713 16.6313
RightArm  -7.14588 -19.3999 53.6473
RightForeArm  -10.1033 66.0503 28.1388
RightHand  -2.77259 5.67067 -28.8059
LeftUpLeg  -16.3014 0.29653 16.1633
LeftLeg  56.5019 -2.18908 -3.04255
LeftFoot  -2.11432 1.82688 -22.11
LeftToes  -3.91115e-011 -2.2622e-010 9.51032e-012
550
root  -18.1944 37.3889 9.36809 177.826 68.5852 -177.882
RightUpLeg  -9.45023 3.11324 -15.2296
RightLeg  27.7569 -5.56178 -3.39882
RightFoot  -10.9113 -0.160477 22.5281
RightToes  -5.8209e-011 0 -3.6325e-017
Spine  11.2031 -1.60655 0.148366
Spine1  19.8891 -0.127385 -3.39028
HEad  -23.9363 50.9744 -22.6567
LeftShoulder1  0.37563 2.02436 -18.8056
LeftArm  6.97931 11.2056 -63.1648
LeftForeArm  76.3682 -79.2187 -91.4344
LeftHand  -2.27936 -2.6318 32.4288
RightShoulder  0.59191 -0.944907 16.6047
RightArm  -5.94036 -23.2044 52.4872
RightForeArm  -6.05576 67.0978 29.3958
RightHand  -2.80841 5.7716 -28.9064
LeftUpLeg  -15.8966 1.19853 14.7464
LeftLeg  52.4298 -1.62207 -1.81472
LeftFoot  -5.44254 1.04691 -19.6063
LeftToes  -3.91115e-011 -2.2622e-010 9.51032e-012
551
root  -18.1438 37.8083 8.92312 177.944 68.6702 -179.582
RightUpLeg  -8.79811 4.12732 -16.2524
RightLeg  23.3321 -7.59604 -3.78669
RightFoot  -8.04481 -0.716556 22.6688
RightToes  -5.8209e-011 0 -3.6325e-017
Spine  10.038 -1.24137 -0.379556
Spine1  19.0356 0.0533202 -3.35163
HEad  -23.9987 50.3446 -22.5361
LeftShoulder1  0.292277 2.3284 -18.2366
LeftArm  9.4461 12.5567 -63.2598
LeftForeArm  89.0517 -78.992 -103.104
LeftHand  -2.01771 -2.6874 28.7146
RightShoulder  0.602786 -0.85208 16.1679
RightArm  -6.06762 -27.1716 52.1756
RightForeArm  -1.57193 67.9715 30.4026
RightHand  -2.89087 5.94586 -29.2763
LeftUpLeg  -15.6822 2.40961 13.532
LeftLeg  45.366 -0.366487 -0.0032619
LeftFoot  -8.32242 0.564096 -19.4531
LeftToes  -3.91115e-011 -2.2622e-010 9.51032e-012
552
root  -18.1571 38.0411 8.46193 178.852 67.3387 179.523
RightUpLeg  -8.09856 3.67184 -17.2035
RightLeg  19.7744 -9.35493 -4.00479
RightFoot  -6.12988 -1.11054 23.1833
RightToes  -5.8209e-011 0 -3.6325e-017
Spine  9.28954 -1.16993 -0.791852
Spine1  17.7554 -0.200114 -2.88915
HEad  -23.9116 49.1819 -21.9497
LeftShoulder1  0.211156 2.63094 -17.4826
LeftArm  11.946 12.4546 -62.8993
LeftForeArm  98.5988 -78.399 -112.675
LeftHand  -1.80408 -2.49483 26.4158
RightShoulder  0.660597 -0.510495 15.4094
RightArm  -8.09718 -30.9719 53.0056
RightForeArm  0.769525 68.1963 30.5187
RightHand  -3.17547 6.28851 -31.0985
LeftUpLeg  -16.222 3.25708 12.5221
LeftLeg  37.9178 1.22207 1.40759
LeftFoot  -9.06152 0.453639 -19.9281
LeftToes  -3.91115e-011 -2.2622e-010 9.51032e-012
553
root  -18.2513 38.0336 7.98589 180 64.5955 179.405
RightUpLeg  -7.3726 2.19273 -17.9397
RightLeg  18.257 -10.8708 -4.56669
RightFoot  -5.39825 -1.28579 23.7334
RightToes  -5.8209e-011 0 -3.6325e-017
Spine  9.18552 -1.4247 -0.980219
Spine1  16.473 -0.787964 -2.27425
HEad  -23.122 47.5856 -20.4918
LeftShoulder1  0.127303 2.96031 -16.6916
LeftArm  14.0993 10.7124 -62.4356
LeftForeArm  103.557 -77.7444 -118.802
LeftHand  -1.69832 -2.2277 25.7533
RightShoulder  0.69724 -0.267035 14.8058
RightArm  -11.6825 -33.5565 54.5371
RightForeArm  -0.2071 67.6571 29.6597
RightHand  -3.64971 6.79522 -34.0623
LeftUpLeg  -17.6158 3.69586 11.4457
LeftLeg  33.6636 2.12798 1.89804
LeftFoot  -9.21084 0.406979 -18.6892
LeftToes  -3.91115e-011 -2.2622e-010 9.51032e-012
554
root  -18.4049 37.8364 7.53154 -179.22 61.1146 179.686
RightUpLeg  -6.68937 1.24052 -18.6974
RightLeg  19.0799 -12.8389 -5.28137
RightFoot  -5.67592 -1.27528 24.6432
RightToes  -5.8209e-011 0 -3.6325e-017
Spine  9.57554 -1.6407 -1.49795
Spine1  15.898 -1.42821 -1.4023
HEad  -22.1447 45.4426 -18.8163
LeftShoulder1  0.102167 3.06343 -16.4363
LeftArm  15.0923 7.98083 -61.9345
LeftForeArm  105.647 -77.2876 -122.018
LeftHand  -1.6312 -2.00766 25.4744
RightShoulder  0.663981 -0.388436 14.563
RightArm  -15.5355 -33.923 55.6737
RightForeArm  -4.24412 66.2143 27.7628
RightHand  -4.20841 7.43351 -37.0969
LeftUpLeg  -19.4469 3.23477 10.4181
LeftLeg  33.6858 1.65048 1.53895
LeftFoot  -10.8098 0.143222 -16.4568
LeftToes  -3.91115e-011 -2.2622e-010 9.51032e-012
555
root  -18.5638 37.524 7.1632 -178.854 57.3928 -179.905
RightUpLeg  -6.10032 -0.0182733 -19.2547
RightLeg  21.5702 -14.1789 -6.28009
RightFoot  -6.83222 -1.08544 25.968
RightToes  -5.8209e-011 0 -3.6325e-017
Spine  10.3529 -1.42486 -2.99235
Spine1  16.0168 -1.98408 0.277662
HEad  -21.452 42.7415 -17.3166
LeftShoulder1  0.172964 2.77105 -16.8345
LeftArm  14.6355 5.55134 -61.5773
LeftForeArm  106.166 -77.093 -123.18
LeftHand  -1.57305 -1.75104 25.4553
RightShoulder  0.592533 -0.717949 14.5334
RightArm  -18.9045 -32.4982 56.0377
RightForeArm  -9.55563 64.1514 25.4053
RightHand  -4.71176 7.98995 -39.5935
LeftUpLeg  -21.2273 1.66169 9.81697
LeftLeg  35.8066 0.0866433 0.430616
LeftFoot  -13.2793 -0.181109 -15.1856
LeftToes  -3.91115e-011 -2.2622e-010 9.51032e-012
556
root  -18.6643 37.2284 6.94532 -178.532 53.3421 -179.595
RightUpLeg  -5.57965 -1.72221 -19.3848
RightLeg  24.4776 -15.5633 -7.81343
RightFoot  -8.1342 -0.821427 26.8404
RightToes  -5.8209e-011 0 -3.6325e-017
Spine  11.3185 -0.680049 -5.30905
Spine1  16.2033 -2.30197 2.60557
HEad  -20.8203 39.3402 -15.378
LeftShoulder1  0.304643 2.23234 -17.2662
LeftArm  13.6857 4.10091 -61.5791
LeftForeArm  104.756 -77.1305 -122.609
LeftHand  -1.6164 -1.50485 27.0003
RightShoulder  0.546117 -0.947901 14.656
RightArm  -22.28 -30.4957 56.3394
RightForeArm  -13.7445 62.2945 23.5641
RightHand  -5.02473 8.24893 -41.2611
LeftUpLeg  -23.1469 -0.252589 9.5998
LeftLeg  37.6607 -1.95364 -1.23827
LeftFoot  -14.6748 -0.347595 -14.8745
LeftToes  -3.91115e-011 -2.2622e-010 9.51032e-012
